<svg xmlns="http://www.w3.org/2000/svg" width="32" height="32" viewBox="0 0 32 32">
  <rect width="32" height="32" rx="4" fill="#0a0a0a"/>
  <rect x="4" y="4" width="4" height="4" fill="#5467a0" opacity="0.4"/>
  <rect x="8" y="4" width="4" height="4" fill="#5467a0" opacity="0.7"/>
  <rect x="12" y="4" width="4" height="4" fill="#5467a0" opacity="0.3"/>
  <rect x="20" y="4" width="4" height="4" fill="#5467a0" opacity="0.6"/>
  <rect x="4" y="8" width="4" height="4" fill="#5467a0" opacity="0.8"/>
  <rect x="12" y="8" width="4" height="4" fill="#5467a0" opacity="1"/>
  <rect x="16" y="8" width="4" height="4" fill="#5467a0" opacity="0.5"/>
  <rect x="24" y="8" width="4" height="4" fill="#5467a0" opacity="0.7"/>
  <rect x="8" y="12" width="4" height="4" fill="#5467a0" opacity="0.5"/>
  <rect x="16" y="12" width="4" height="4" fill="#5467a0" opacity="0.9"/>
  <rect x="20" y="12" width="4" height="4" fill="#5467a0" opacity="0.3"/>
  <rect x="4" y="16" width="4" height="4" fill="#5467a0" opacity="0.6"/>
  <rect x="12" y="16" width="4" height="4" fill="#5467a0" opacity="0.4"/>
  <rect x="20" y="16" width="4" height="4" fill="#5467a0" opacity="1"/>
  <rect x="24" y="16" width="4" height="4" fill="#5467a0" opacity="0.5"/>
  <rect x="8" y="20" width="4" height="4" fill="#5467a0" opacity="0.9"/>
  <rect x="16" y="20" width="4" height="4" fill="#5467a0" opacity="0.6"/>
  <rect x="24" y="20" width="4" height="4" fill="#5467a0" opacity="0.3"/>
  <rect x="4" y="24" width="4" height="4" fill="#5467a0" opacity="0.3"/>
  <rect x="12" y="24" width="4" height="4" fill="#5467a0" opacity="0.7"/>
  <rect x="20" y="24" width="4" height="4" fill="#5467a0" opacity="0.5"/>
</svg>
